<svg preserveAspectRatio="none" width="25" height="25" viewBox="0 0 25 25" fill="none" xmlns="http://www.w3.org/2000/svg">
<path d="M7.32308 0.0865606C5.99306 0.149336 5.08465 0.362371 4.29084 0.673416C3.46909 0.993768 2.7725 1.42309 2.07955 2.11888C1.38578 2.81509 0.959717 3.51291 0.641802 4.33548C0.333997 5.13131 0.125417 6.04016 0.066684 7.371C0.00837153 8.70429 -0.00500098 9.12954 0.00149902 12.5239C0.00797402 15.9178 0.022954 16.3439 0.086534 17.6776C0.150112 19.0072 0.362352 19.9153 0.673394 20.7095C0.994152 21.5312 1.42303 22.2274 2.11922 22.9208C2.81502 23.6142 3.51324 24.0398 4.3362 24.3582C5.13122 24.6656 6.04044 24.875 7.37088 24.9333C8.70414 24.992 9.12978 25.005 12.5233 24.9985C15.9184 24.992 16.3441 24.977 17.6773 24.9138C19.0074 24.8503 19.915 24.6372 20.7096 24.327C21.5313 24.0054 22.2279 23.5773 22.9209 22.8811C23.6138 22.1853 24.0399 21.4871 24.3578 20.6641C24.6656 19.8691 24.875 18.9598 24.9329 17.6302C24.9912 16.2961 25.005 15.8701 24.9985 12.4761C24.992 9.08174 24.9767 8.65649 24.9135 7.32362C24.8503 5.99277 24.6373 5.08515 24.3266 4.29053C24.0055 3.46877 23.577 2.77297 22.8812 2.0792C22.1854 1.38623 21.4872 0.959348 20.6642 0.642233C19.8688 0.334426 18.96 0.124628 17.6295 0.0671181C16.2963 0.00798815 15.8706 -0.00496435 12.4759 0.00151315C9.082 0.00799065 8.65636 0.0225756 7.32308 0.0865606ZM7.4689 22.6835C6.25024 22.6304 5.58848 22.4279 5.14743 22.2582C4.56342 22.0322 4.14667 21.7613 3.70805 21.3259C3.27025 20.8889 2.99849 20.4733 2.77048 19.8905C2.59915 19.4495 2.39301 18.7885 2.33591 17.5699C2.27394 16.2524 2.25978 15.8571 2.25369 12.5194C2.24722 9.1826 2.25935 8.7873 2.31688 7.46861C2.36911 6.25075 2.57284 5.58817 2.74212 5.14751C2.9681 4.56268 3.23824 4.14674 3.67443 3.70813C4.11142 3.2695 4.52695 2.99855 5.11015 2.77054C5.5508 2.5984 6.21177 2.39387 7.43001 2.33597C8.74829 2.27359 9.14315 2.26023 12.48 2.25375C15.8176 2.24726 16.2128 2.25902 17.5315 2.31693C18.7494 2.36998 19.4119 2.57168 19.8522 2.74219C20.4366 2.96817 20.8533 3.23751 21.2916 3.67451C21.7298 4.11152 22.0015 4.52624 22.2295 5.11066C22.4017 5.55009 22.6062 6.21187 22.6637 7.42973C22.7265 8.74802 22.7407 9.1433 22.7467 12.4802C22.7532 15.8178 22.7411 16.2131 22.6831 17.531C22.6301 18.7496 22.428 19.4118 22.2579 19.8533C22.0319 20.4369 21.7618 20.8536 21.3252 21.2923C20.8886 21.7293 20.4731 22.0018 19.8894 22.2299C19.4496 22.4016 18.7879 22.6065 17.5704 22.6644C16.2521 22.7264 15.8573 22.7406 12.5192 22.7466C9.18244 22.7531 8.78757 22.7406 7.4689 22.6835ZM17.6591 5.81821C17.6607 6.64605 18.3338 7.31633 19.1617 7.31471C19.9899 7.31309 20.6602 6.64037 20.659 5.81254C20.6573 4.9847 19.9842 4.31402 19.156 4.31564C18.3278 4.31726 17.6575 4.99038 17.6591 5.81821ZM6.08177 12.5121C6.08865 16.0572 8.9678 18.9246 12.512 18.9177C16.0565 18.9108 18.9255 16.0325 18.9187 12.4874C18.9118 8.94364 16.0322 6.07458 12.4873 6.08146C8.94308 6.08835 6.07488 8.96794 6.08177 12.5121ZM8.33316 12.5077C8.3291 10.2069 10.1913 8.33776 12.4917 8.3337C14.7925 8.32925 16.662 10.1907 16.6664 12.4919C16.6709 14.7931 14.8087 16.6618 12.5075 16.6663C10.2071 16.6707 8.33761 14.8089 8.33316 12.5077Z" fill="black"/>
</svg>
