<svg preserveAspectRatio="none" width="163" height="48" viewBox="0 0 163 48" fill="none" xmlns="http://www.w3.org/2000/svg">
<g clip-path="url(#clip0_4009_110)">
<path fill-rule="evenodd" clip-rule="evenodd" d="M156.633 47.9989H6.02666C2.70511 47.9989 0 45.2938 0 41.9992V6.00081C0 2.69423 2.70511 0.00108172 6.02666 0.00108172H156.633C159.952 0.00108172 162.66 2.69423 162.66 6.00081V41.9992C162.66 45.2938 159.952 47.9989 156.633 47.9989Z" fill="black"/>
<path d="M156.633 0.961637C159.419 0.961637 161.699 3.22687 161.699 6.00081V41.9992C161.699 44.7731 159.434 47.0384 156.633 47.0384H6.02666C3.24075 47.0384 0.960555 44.7731 0.960555 41.9992V6.00081C0.960555 3.22687 3.22579 0.961637 6.02666 0.961637H156.633ZM156.633 0.00108172H6.02666C2.70511 0.00108172 0 2.7062 0 6.00081V41.9992C0 45.3058 2.70511 47.9989 6.02666 47.9989H156.633C159.952 47.9989 162.66 45.3058 162.66 41.9992V6.00081C162.66 2.7062 159.952 0.00108172 156.633 0.00108172Z" fill="black"/>
<path d="M85.6899 15.8787C84.6037 15.8787 83.688 15.4986 82.9638 14.7505C82.2457 14.0234 81.8447 13.0209 81.8626 11.9975C81.8626 10.9053 82.2337 9.98068 82.9638 9.24755C83.685 8.49945 84.6007 8.11942 85.6869 8.11942C86.7612 8.11942 87.6769 8.49945 88.413 9.24755C89.1431 10.0046 89.5142 10.9293 89.5142 11.9975C89.5022 13.0928 89.1312 14.0174 88.413 14.7475C87.6918 15.5016 86.7761 15.8787 85.6899 15.8787ZM53.3692 15.8787C52.3069 15.8787 51.3852 15.5046 50.6311 14.7655C49.883 14.0294 49.503 13.0987 49.503 12.0005C49.503 10.9023 49.883 9.9717 50.6311 9.23558C51.3703 8.49646 52.2919 8.12241 53.3692 8.12241C53.8958 8.12241 54.4075 8.22714 54.8983 8.4396C55.38 8.64608 55.7721 8.92736 56.0623 9.27149L56.1341 9.35827L55.3232 10.1542L55.2394 10.0555C54.7816 9.51088 54.1681 9.24455 53.3572 9.24455C52.633 9.24455 52.0016 9.5019 51.481 10.0106C50.9573 10.5223 50.691 11.1926 50.691 12.0035C50.691 12.8145 50.9573 13.4848 51.481 13.9965C52.0016 14.5052 52.633 14.7625 53.3572 14.7625C54.1292 14.7625 54.7786 14.5052 55.2843 13.9965C55.5835 13.6972 55.7691 13.2783 55.8349 12.7486H53.2345V11.6295H56.9511L56.966 11.7312C56.9929 11.9197 57.0199 12.1143 57.0199 12.2938C57.0199 13.3262 56.7087 14.161 56.0922 14.7775C55.392 15.5076 54.4764 15.8787 53.3692 15.8787ZM96.3428 15.7201H95.1967L91.6866 10.1034L91.7166 11.1148V15.7171H90.5705V8.28101H91.8782L91.9141 8.33786L95.2147 13.6284L95.1847 12.62V8.28101H96.3428V15.7201ZM77.0778 15.7201H75.9168V9.40016H73.9029V8.28101H79.0887V9.40016H77.0748V15.7201H77.0778ZM72.9573 15.7201H71.7993V8.28101H72.9573V15.7201ZM66.4489 15.7201H65.2908V9.40016H63.277V8.28101H68.4628V9.40016H66.4489V15.7201ZM62.5438 15.7081H58.1031V8.28101H62.5438V9.40016H59.2642V11.441H62.2236V12.5481H59.2642V14.589H62.5438V15.7081ZM83.8137 13.9815C84.3314 14.4992 84.9598 14.7595 85.6899 14.7595C86.441 14.7595 87.0544 14.5052 87.5661 13.9815C88.0748 13.4728 88.3322 12.8055 88.3322 12.0005C88.3322 11.1956 88.0748 10.5253 87.5691 10.0196C87.0514 9.5019 86.42 9.24156 85.6929 9.24156C84.9418 9.24156 84.3284 9.49591 83.8197 10.0196C83.311 10.5283 83.0536 11.1956 83.0536 12.0005C83.0536 12.8055 83.308 13.4758 83.8137 13.9815Z" fill="white"/>
<path fill-rule="evenodd" clip-rule="evenodd" d="M81.7549 26.1066C78.9271 26.1066 76.635 28.2522 76.635 31.2116C76.635 34.1442 78.9421 36.3167 81.7549 36.3167C84.5827 36.3167 86.8749 34.1562 86.8749 31.2116C86.8749 28.2522 84.5827 26.1066 81.7549 26.1066ZM81.7549 34.2938C80.2079 34.2938 78.8762 33.0131 78.8762 31.1997C78.8762 29.3594 80.2109 28.1056 81.7549 28.1056C83.302 28.1056 84.6336 29.3594 84.6336 31.1997C84.6366 33.025 83.302 34.2938 81.7549 34.2938ZM70.5844 26.1066C67.7566 26.1066 65.4644 28.2522 65.4644 31.2116C65.4644 34.1442 67.7715 36.3167 70.5844 36.3167C73.4122 36.3167 75.7043 34.1562 75.7043 31.2116C75.7043 28.2522 73.4092 26.1066 70.5844 26.1066ZM70.5844 34.2938C69.0373 34.2938 67.7057 33.0131 67.7057 31.1997C67.7057 29.3594 69.0403 28.1056 70.5844 28.1056C72.1314 28.1056 73.463 29.3594 73.463 31.1997C73.463 33.025 72.1314 34.2938 70.5844 34.2938ZM57.2922 27.6657V29.8262H62.478C62.3194 31.0381 61.9184 31.9328 61.305 32.5462C60.5449 33.3063 59.3719 34.1322 57.3042 34.1322C54.1173 34.1322 51.6246 31.5588 51.6246 28.3719C51.6246 25.185 54.1173 22.6115 57.3042 22.6115C59.0248 22.6115 60.2786 23.2908 61.2092 24.1586L62.7413 22.6265C61.4486 21.3876 59.728 20.4391 57.3161 20.4391C52.9442 20.4391 49.2756 24 49.2756 28.3599C49.2756 32.7318 52.9413 36.2807 57.3161 36.2807C59.6771 36.2807 61.4486 35.5087 62.849 34.0544C64.2764 32.627 64.7283 30.6132 64.7283 28.9883C64.7283 28.4826 64.6894 28.0277 64.6086 27.6417H57.2892C57.2922 27.6387 57.2922 27.6657 57.2922 27.6657ZM111.661 29.3474C111.233 28.2013 109.94 26.0947 107.289 26.0947C104.662 26.0947 102.477 28.1624 102.477 31.1997C102.477 34.0664 104.638 36.3047 107.543 36.3047C109.877 36.3047 111.236 34.8773 111.795 34.0394L110.063 32.8784C109.488 33.7312 108.689 34.2908 107.555 34.2908C106.409 34.2908 105.607 33.7701 105.075 32.7437L111.9 29.9159C111.9 29.9189 111.661 29.3474 111.661 29.3474ZM104.701 31.053C104.647 29.0811 106.233 28.0786 107.367 28.0786C108.261 28.0786 109.007 28.5185 109.261 29.1589L104.701 31.053ZM99.1556 35.9995H101.397V21.0016H99.1556V35.9995ZM95.475 27.2408H95.3942C94.8885 26.6393 93.9279 26.0947 92.7011 26.0947C90.1545 26.0947 87.8085 28.336 87.8085 31.2146C87.8085 34.0813 90.1426 36.2957 92.7011 36.2957C93.913 36.2957 94.8885 35.7481 95.3942 35.1347H95.475V35.8678C95.475 37.8158 94.4337 38.8662 92.7549 38.8662C91.3814 38.8662 90.5286 37.8787 90.1815 37.0528L88.2334 37.8667C88.793 39.2133 90.2862 40.88 92.7519 40.88C95.3792 40.88 97.6056 39.333 97.6056 35.5596V26.3999H95.487V27.2408C95.49 27.2408 95.475 27.2408 95.475 27.2408ZM92.9016 34.2938C91.3545 34.2938 90.0618 33.0011 90.0618 31.2146C90.0618 29.4132 91.3545 28.1085 92.9016 28.1085C94.4337 28.1085 95.6216 29.4282 95.6216 31.2146C95.6366 33.0011 94.4366 34.2938 92.9016 34.2938ZM122.155 21.0016H116.796V35.9995H119.037V30.3199H122.158C124.639 30.3199 127.078 28.5215 127.078 25.6668C127.078 22.812 124.648 21.0016 122.155 21.0016ZM122.221 28.2252H119.034V23.0783H122.221C123.9 23.0783 124.848 24.4638 124.848 25.6518C124.848 26.8278 123.888 28.2252 122.221 28.2252ZM136.061 26.0797C134.433 26.0797 132.754 26.8009 132.06 28.3719L134.047 29.1978C134.475 28.3719 135.259 28.0906 136.088 28.0906C137.249 28.0906 138.422 28.7848 138.449 30.0237V30.1823C138.048 29.9548 137.168 29.6077 136.115 29.6077C133.969 29.6077 131.794 30.7807 131.794 32.9801C131.794 34.994 133.553 36.2867 135.513 36.2867C137.018 36.2867 137.847 35.6075 138.365 34.8205H138.446V35.9815H140.606V30.2361C140.606 27.5609 138.619 26.0797 136.061 26.0797ZM135.779 34.2938C135.046 34.2938 134.02 33.9347 134.02 33.0131C134.02 31.852 135.301 31.4121 136.393 31.4121C137.38 31.4121 137.847 31.6246 138.434 31.9178C138.272 33.2644 137.135 34.2818 135.779 34.2938ZM148.488 26.3999L145.915 32.9053H145.834L143.168 26.3999H140.756L144.757 35.4937L142.476 40.5479H144.81L150.966 26.3999H148.488ZM128.313 35.9995H130.555V21.0016H128.313V35.9995Z" fill="white"/>
<path d="M12.5201 9.04107C12.173 9.41512 11.9725 9.98667 11.9725 10.7348V37.2682C11.9725 38.0163 12.173 38.5879 12.5321 38.947L12.6249 39.0278L27.491 24.1616V23.8294L12.6129 8.96028L12.5201 9.04107Z" fill="white" stroke="black" stroke-width="0.0598477"/>
<path d="M32.4374 29.1319L27.4791 24.1736V23.8264L32.4374 18.8681L32.5452 18.9339L38.4102 22.2674C40.089 23.213 40.089 24.775 38.4102 25.7326L32.5452 29.0661L32.4374 29.1319Z" fill="white" stroke="black" stroke-width="0.0598477"/>
<path d="M32.5452 29.0661L27.4791 24L12.5201 38.9589C13.0677 39.5454 13.9864 39.6113 15.0128 39.0397L32.5452 29.0661Z" fill="white" stroke="black" stroke-width="0.0598477"/>
<path d="M32.5452 18.9339L15.0128 8.97524C13.9864 8.38873 13.0647 8.46953 12.5201 9.05603L27.4791 24L32.5452 18.9339Z" fill="white" stroke="black" stroke-width="0.0598477"/>
<path opacity="0.2" fill-rule="evenodd" clip-rule="evenodd" d="M32.4374 28.9584L15.0248 38.8512C14.0522 39.4108 13.1844 39.3719 12.6249 38.8632L12.5321 38.9559L12.6249 39.0367C13.1844 39.5424 14.0522 39.5843 15.0248 39.0248L32.5571 29.0661L32.4374 28.9584Z" fill="black"/>
<path opacity="0.12" fill-rule="evenodd" clip-rule="evenodd" d="M38.4102 25.559L32.4225 28.9584L32.5302 29.0661L38.3953 25.7326C39.2361 25.2538 39.6491 24.6254 39.6491 24C39.5982 24.5745 39.1703 25.1192 38.4102 25.559Z" fill="black"/>
<path opacity="0.25" fill-rule="evenodd" clip-rule="evenodd" d="M15.0128 9.1488L38.4102 22.441C39.1703 22.8689 39.5982 23.4285 39.6641 24C39.6641 23.3746 39.2511 22.7462 38.4102 22.2674L15.0128 8.97524C13.3341 8.01469 11.9725 8.81664 11.9725 10.7348V10.9083C11.9725 8.98721 13.3341 8.20021 15.0128 9.1488Z" fill="white"/>
</g>
<defs>
<clipPath id="clip0_4009_110">
<rect width="162.66" height="47.9978" fill="white" transform="translate(0 0.00108172)"/>
</clipPath>
</defs>
</svg>
