<svg preserveAspectRatio="none" width="15" height="15" viewBox="0 0 15 15" fill="none" xmlns="http://www.w3.org/2000/svg">
<path d="M12.4721 11.0658C12.4721 11.2891 12.394 11.4788 12.2377 11.635L11.0993 12.7734C10.9431 12.9297 10.7533 13.0078 10.5301 13.0078C10.3069 13.0078 10.1172 12.9297 9.96093 12.7734L7.49999 10.3125L5.03905 12.7734C4.8828 12.9297 4.69307 13.0078 4.46986 13.0078C4.24664 13.0078 4.05691 12.9297 3.90066 12.7734L2.76227 11.635C2.60602 11.4788 2.52789 11.2891 2.52789 11.0658C2.52789 10.8426 2.60602 10.6529 2.76227 10.4967L5.22321 8.03571L2.76227 5.57478C2.60602 5.41853 2.52789 5.22879 2.52789 5.00558C2.52789 4.78237 2.60602 4.59263 2.76227 4.43638L3.90066 3.29799C4.05691 3.14174 4.24664 3.06362 4.46986 3.06362C4.69307 3.06362 4.8828 3.14174 5.03905 3.29799L7.49999 5.75893L9.96093 3.29799C10.1172 3.14174 10.3069 3.06362 10.5301 3.06362C10.7533 3.06362 10.9431 3.14174 11.0993 3.29799L12.2377 4.43638C12.394 4.59263 12.4721 4.78237 12.4721 5.00558C12.4721 5.22879 12.394 5.41853 12.2377 5.57478L9.77678 8.03571L12.2377 10.4967C12.394 10.6529 12.4721 10.8426 12.4721 11.0658Z" fill="#BFC9E0"/>
</svg>
