<svg preserveAspectRatio="none" width="20" height="20" viewBox="0 0 20 20" fill="none" xmlns="http://www.w3.org/2000/svg">
<g clip-path="url(#clip0_4009_74)">
<path d="M10 2.08333C10.9801 2.08303 11.9345 2.39691 12.723 2.97889C13.5116 3.56087 14.0929 4.38031 14.3815 5.31693C14.6701 6.25356 14.6509 7.25803 14.3267 8.18293C14.0024 9.10783 13.3903 9.90444 12.58 10.4558C13.9864 10.9717 15.2062 11.8966 16.0824 13.1116C16.9587 14.3266 17.4512 15.776 17.4967 17.2733C17.5009 17.3564 17.4885 17.4396 17.4602 17.5178C17.4319 17.5961 17.3883 17.6679 17.3318 17.7291C17.2754 17.7902 17.2073 17.8395 17.1316 17.874C17.0559 17.9085 16.974 17.9275 16.8908 17.93C16.8076 17.9324 16.7248 17.9182 16.6472 17.8882C16.5696 17.8582 16.4987 17.813 16.4388 17.7553C16.3789 17.6975 16.3311 17.6284 16.2982 17.5519C16.2654 17.4755 16.2481 17.3932 16.2475 17.31C16.1979 15.6862 15.518 14.1456 14.3518 13.0145C13.1857 11.8835 11.625 11.2509 10.0004 11.2509C8.37587 11.2509 6.81516 11.8835 5.64902 13.0145C4.48288 14.1456 3.80296 15.6862 3.75333 17.31C3.74836 17.4758 3.67774 17.6328 3.55702 17.7464C3.43629 17.8601 3.27534 17.9212 3.10958 17.9162C2.94382 17.9113 2.78683 17.8407 2.67313 17.7199C2.55944 17.5992 2.49836 17.4383 2.50333 17.2725C2.54896 15.7753 3.04158 14.3261 3.9178 13.1113C4.79402 11.8964 6.01375 10.9716 7.42 10.4558C6.60974 9.90444 5.99757 9.10783 5.67333 8.18293C5.3491 7.25803 5.32989 6.25356 5.61851 5.31693C5.90713 4.38031 6.48839 3.56087 7.27697 2.97889C8.06555 2.39691 9.01992 2.08303 10 2.08333ZM6.66667 6.66667C6.66667 7.55072 7.01786 8.39857 7.64298 9.02369C8.2681 9.64881 9.11594 10 10 10C10.8841 10 11.7319 9.64881 12.357 9.02369C12.9821 8.39857 13.3333 7.55072 13.3333 6.66667C13.3333 5.78261 12.9821 4.93476 12.357 4.30964C11.7319 3.68452 10.8841 3.33333 10 3.33333C9.11594 3.33333 8.2681 3.68452 7.64298 4.30964C7.01786 4.93476 6.66667 5.78261 6.66667 6.66667Z" fill="#FDF8ED" stroke="#FDF8ED" stroke-width="4"/>
</g>
<defs>
<clipPath id="clip0_4009_74">
<rect width="20" height="20" fill="white"/>
</clipPath>
</defs>
</svg>
