<svg preserveAspectRatio="none" width="14" height="14" viewBox="0 0 14 14" fill="none" xmlns="http://www.w3.org/2000/svg">
<g clip-path="url(#clip0_4009_126)">
<path d="M0.964523 13.7566C1.01694 13.7566 1.06718 13.7456 1.11524 13.7236C1.16329 13.7016 1.20916 13.673 1.25284 13.6378L8.21188 7.32991C8.25557 7.28592 8.29052 7.23534 8.31673 7.17815C8.34294 7.12097 8.35604 7.06158 8.35604 7C8.35604 6.93842 8.34294 6.87903 8.31673 6.82185C8.29052 6.76466 8.25557 6.71408 8.21188 6.67009L1.25284 0.362171C1.20916 0.318183 1.16111 0.285191 1.10868 0.263197C1.05626 0.241203 0.999471 0.230206 0.938311 0.230206C0.877152 0.230206 0.820362 0.241203 0.76794 0.263197C0.715517 0.285191 0.671832 0.318183 0.636884 0.362171C0.593199 0.397361 0.560435 0.44135 0.538593 0.494136C0.51675 0.546922 0.505829 0.604106 0.505829 0.66569C0.505829 0.727273 0.51675 0.784458 0.538593 0.837244C0.560435 0.89003 0.593199 0.934018 0.636884 0.969209L7.25518 7L0.663095 12.9912C0.61941 13.0264 0.586646 13.0726 0.564804 13.1298C0.542961 13.187 0.53204 13.2419 0.53204 13.2947C0.53204 13.3563 0.542961 13.4135 0.564804 13.4663C0.586646 13.5191 0.61941 13.5674 0.663095 13.6114C0.698043 13.6554 0.741728 13.6906 0.794151 13.717C0.846573 13.7434 0.903363 13.7566 0.964523 13.7566Z" fill="#233470"/>
</g>
<defs>
<clipPath id="clip0_4009_126">
<rect width="13.407" height="14" fill="white" transform="matrix(1 0 0 -1 0.505829 14)"/>
</clipPath>
</defs>
</svg>
