<svg preserveAspectRatio="none" width="14" height="14" viewBox="0 0 14 14" fill="none" xmlns="http://www.w3.org/2000/svg">
<g clip-path="url(#clip0_4009_124)">
<path d="M0.964469 13.7566C1.01689 13.7566 1.06713 13.7456 1.11518 13.7236C1.16324 13.7016 1.20911 13.673 1.25279 13.6378L8.21183 7.32991C8.25551 7.28592 8.29046 7.23534 8.31667 7.17815C8.34288 7.12097 8.35599 7.06158 8.35599 7C8.35599 6.93842 8.34288 6.87903 8.31667 6.82185C8.29046 6.76466 8.25551 6.71408 8.21183 6.67009L1.25279 0.362171C1.20911 0.318183 1.16105 0.285191 1.10863 0.263197C1.05621 0.241203 0.999417 0.230206 0.938258 0.230206C0.877099 0.230206 0.820308 0.241203 0.767886 0.263197C0.715464 0.285191 0.671779 0.318183 0.636831 0.362171C0.593146 0.397361 0.560382 0.44135 0.538539 0.494136C0.516697 0.546922 0.505775 0.604106 0.505775 0.66569C0.505775 0.727273 0.516697 0.784458 0.538539 0.837244C0.560382 0.89003 0.593146 0.934018 0.636831 0.969209L7.25512 7L0.663042 12.9912C0.619357 13.0264 0.586593 13.0726 0.56475 13.1298C0.542908 13.187 0.531987 13.2419 0.531987 13.2947C0.531987 13.3563 0.542908 13.4135 0.56475 13.4663C0.586593 13.5191 0.619357 13.5674 0.663042 13.6114C0.69799 13.6554 0.741675 13.6906 0.794097 13.717C0.846519 13.7434 0.90331 13.7566 0.964469 13.7566Z" fill="#233470"/>
</g>
<defs>
<clipPath id="clip0_4009_124">
<rect width="13.407" height="14" fill="white" transform="matrix(1 0 0 -1 0.505775 14)"/>
</clipPath>
</defs>
</svg>
