<svg preserveAspectRatio="none" width="14" height="14" viewBox="0 0 14 14" fill="none" xmlns="http://www.w3.org/2000/svg">
<g clip-path="url(#clip0_4009_122)">
<path d="M0.964439 13.7566C1.01686 13.7566 1.0671 13.7456 1.11515 13.7236C1.16321 13.7016 1.20908 13.673 1.25276 13.6378L8.2118 7.32991C8.25548 7.28592 8.29043 7.23534 8.31664 7.17815C8.34285 7.12097 8.35596 7.06158 8.35596 7C8.35596 6.93842 8.34285 6.87903 8.31664 6.82185C8.29043 6.76466 8.25548 6.71408 8.2118 6.67009L1.25276 0.362171C1.20908 0.318183 1.16102 0.285191 1.1086 0.263197C1.05618 0.241203 0.999387 0.230206 0.938228 0.230206C0.877068 0.230206 0.820278 0.241203 0.767856 0.263197C0.715433 0.285191 0.671748 0.318183 0.6368 0.362171C0.593115 0.397361 0.560351 0.44135 0.538509 0.494136C0.516666 0.546922 0.505745 0.604106 0.505745 0.66569C0.505745 0.727273 0.516666 0.784458 0.538509 0.837244C0.560351 0.89003 0.593115 0.934018 0.6368 0.969209L7.25509 7L0.663011 12.9912C0.619326 13.0264 0.586562 13.0726 0.56472 13.1298C0.542877 13.187 0.531956 13.2419 0.531956 13.2947C0.531956 13.3563 0.542877 13.4135 0.56472 13.4663C0.586562 13.5191 0.619326 13.5674 0.663011 13.6114C0.697959 13.6554 0.741645 13.6906 0.794067 13.717C0.846489 13.7434 0.903279 13.7566 0.964439 13.7566Z" fill="#233470"/>
</g>
<defs>
<clipPath id="clip0_4009_122">
<rect width="13.407" height="14" fill="white" transform="matrix(1 0 0 -1 0.505745 14)"/>
</clipPath>
</defs>
</svg>
